# xmcd
#
# Track frame offsets:
#	150
#	14010
#	28090
#	42452
#	56355
#	70422
#	83747
#	99547
#	114115
#	130430
#	147045
#	163470
#	180320
#	194152
#	208757
#	224897
#	241290
#	255660
#	268060
#	280000
#	294162
#	305205
#	318605
#
# Disc length: 4399 seconds
#
# Revision: 1
# Processed by: cddbd v1.5.2PL0 Copyright (c) Steve Scherf et al.
# Submitted via: EasyCDDAExtractor 15.2.5.1
#
DISCID=6d112d17
DTITLE=Leroy Carr and Scrapper Blackwell - Leroy Carr - Complete Works, Vol.4, 1
DTITLE=932-34
DYEAR=1900
DGENRE=Blues
TTITLE0=Gone Mother Blues
TTITLE1=Midnight Hour Blues
TTITLE2=Moonlight Blues
TTITLE3=The Depression Blues
TTITLE4=Mean Mistreater Mama (take 1)
TTITLE5=Mean Mistreater Mama (take 2)
TTITLE6=Mean Mistreater Mama (No. 2)
TTITLE7=Court Room Blues
TTITLE8=Hurry Down Sunshine
TTITLE9=Corn Licker Blues
TTITLE10=Hold Them Puppies
TTITLE11=Shady Lane Blues
TTITLE12=Blues She Gave Me
TTITLE13=You Can't Run My Business No More
TTITLE14=Blues Before Sunrise (take 1)
TTITLE15=Blues Before Sunrise (take 2)
TTITLE16=I Ain't Got No Money Now
TTITLE17=Sometime I Feel Like a Motherless Child
TTITLE18=Stormy Night Blues (take 2)
TTITLE19=Take a Walk Around the Corner
TTITLE20=Baby, Come Back to Me
TTITLE21=Blue Night Blues
TTITLE22=My Woman's Gone Wrong
EXTD=
EXTT0=
EXTT1=
EXTT2=
EXTT3=
EXTT4=
EXTT5=
EXTT6=
EXTT7=
EXTT8=
EXTT9=
EXTT10=
EXTT11=
EXTT12=
EXTT13=
EXTT14=
EXTT15=
EXTT16=
EXTT17=
EXTT18=
EXTT19=
EXTT20=
EXTT21=
EXTT22=
PLAYORDER=
